<svg width="32" height="32" viewBox="0 0 32 32" fill="none" xmlns="http://www.w3.org/2000/svg">
<g clip-path="url(#clip0_5416_3)">
<rect width="32" height="32" rx="5" fill="#4096FF"/>
<path d="M17.252 26.406C15.106 26.406 13.2693 25.971 11.742 25.101C10.2147 24.2213 9.045 22.9888 8.233 21.4035C7.421 19.8182 7.015 17.9573 7.015 15.821C7.015 13.704 7.4645 11.8577 8.3635 10.282C9.27217 8.69667 10.524 7.469 12.119 6.599C13.714 5.729 15.5507 5.294 17.629 5.294C18.702 5.294 19.7267 5.40517 20.703 5.6275C21.689 5.84983 22.53 6.135 23.226 6.483L22.82 10.021C22.095 9.68267 21.2927 9.40717 20.413 9.1945C19.543 8.97217 18.615 8.861 17.629 8.861C16.121 8.861 14.8837 9.1655 13.917 9.7745C12.9503 10.3738 12.235 11.1955 11.771 12.2395C11.307 13.2738 11.075 14.4483 11.075 15.763C11.075 17.1453 11.307 18.3682 11.771 19.4315C12.2447 20.4948 12.9503 21.331 13.888 21.94C14.8257 22.5393 15.9953 22.839 17.397 22.839C17.8223 22.839 18.267 22.81 18.731 22.752C19.2047 22.694 19.688 22.6167 20.181 22.52V18.895H17.397V15.821H23.893V24.869C23.1873 25.2847 22.2497 25.6472 21.08 25.9565C19.92 26.2562 18.644 26.406 17.252 26.406Z" fill="white"/>
</g>
<defs>
<clipPath id="clip0_5416_3">
<rect width="32" height="32" fill="white"/>
</clipPath>
</defs>
</svg>
